<mxfile host="app.diagrams.net" modified="2024-01-10T12:44:15.461Z" agent="Mozilla/5.0 (Windows NT 10.0; Win64; x64) AppleWebKit/537.36 (KHTML, like Gecko) Chrome/120.0.0.0 Safari/537.36 Edg/120.0.0.0" version="22.1.18" etag="MVZ3cY7TVbmOyAii3WZm" type="github">
  <diagram name="Page-1" id="eabDOWcIC24OPttuRBso">
    <mxGraphModel>
      <root>
        <mxCell id="0" />
        <mxCell id="1" parent="0" />
      </root>
    </mxGraphModel>
  </diagram>
</mxfile>
